<svg width="1000" height="447" viewBox="0 0 1000 447" fill="none" xmlns="http://www.w3.org/2000/svg">
<g clip-path="url(#clip0_1174_3261)">
<rect width="1000" height="447" fill="#0A0D21"/>
<g clip-path="url(#clip1_1174_3261)">
<path d="M792.851 381.203H985.917C985.917 381.203 1043.26 378.399 1041.98 393.64C1040.46 411.574 824.5 414.885 808 422.5C788.5 431.5 777.33 435.562 748.367 442.007C719.405 448.451 664.515 432.047 510.665 450C417.565 433.218 719.226 381.203 792.851 381.203Z" fill="#0F153A"/>
<path d="M1029.08 8.46205C1029.26 -15.9738 982.855 -19.5628 983.399 -6.70548L900.091 -6.41556C890.45 -6.28128 882.666 2.43776 882.7 13.0489L883.796 367.478C883.83 377.863 891.574 386.277 901.102 386.28L989.35 386.722C990.196 388.453 991.791 390.021 994.305 391.321C1019 391.126 1030.22 381.409 1030.32 368.9C1031.24 366.593 1030.07 13.055 1029.08 8.45899L1029.08 8.46205Z" fill="#027273"/>
<path d="M992.835 391.387L884.254 391.265C874.387 391.283 866.361 382.647 866.322 371.968L865.002 7.43818C864.962 -3.47816 873.021 -12.4261 883.007 -12.5421L991.903 -13.952C1001.97 -14.068 1010.15 -5.26347 1010.17 5.70475L1010.81 371.941C1010.83 382.668 1002.78 391.372 992.835 391.387Z" fill="#2D3566"/>
<path d="M995.028 388.8C994.372 388.892 993.699 388.938 993.03 388.938L884.477 388.645C875.997 388.651 869.029 381.076 868.995 371.756L867.706 7.62548C867.672 -1.90534 874.671 -9.7485 883.249 -9.85532L992.114 -11.4453C992.365 -11.4453 992.618 -11.4453 992.866 -11.4362C996.892 -11.2836 1000.64 -9.483 1003.44 -6.3732C1006.29 -3.19626 1007.87 1.03051 1007.87 5.53194L1008.54 372.137C1008.56 380.576 1002.77 387.735 995.028 388.8Z" fill="#0D0D0D"/>
<path d="M1002.26 7.47656L1002.99 372.736L874.264 372.727L873.032 8.53554L1002.26 7.47656Z" fill="black"/>
<mask id="mask0_1174_3261" style="mask-type:luminance" maskUnits="userSpaceOnUse" x="873" y="7" width="131" height="366">
<path d="M1002.37 7.47656L1003.1 372.736L874.377 372.727L873.146 8.53554L1002.37 7.47656Z" fill="white"/>
</mask>
<g mask="url(#mask0_1174_3261)">
<path d="M868.44 42.2656H1025.46V385.07H868.44V42.2656Z" fill="black"/>
<path d="M849.299 342.109L1103.97 264.935L1093.89 256.555L854.602 318.717L849.299 342.109Z" fill="#393E63"/>
<path d="M1106.35 265.384L1107.87 270.625L818.091 354.511L816.571 349.27L1106.35 265.384Z" fill="#12173C"/>
<path d="M967.551 178.126C969.787 177.9 972.072 177.781 974.4 177.781C976.728 177.781 979.019 177.903 981.258 178.126C1002.39 180.241 1020.54 192.384 1023.26 208.33C1026.25 225.869 1009.82 241.775 984.957 244.817C982.281 245.147 979.52 245.324 976.703 245.324C973.887 245.324 971.113 245.147 968.4 244.817C943.332 241.775 925.816 225.869 927.609 208.33C929.24 192.387 946.558 180.241 967.551 178.126ZM968.25 233.028C970.838 233.471 973.547 233.703 976.309 233.703C979.071 233.703 981.747 233.471 984.307 233.028C1000.17 230.321 1010.77 219.97 1009.26 208.33C1007.83 197.414 996.08 188.789 981.734 186.68C979.456 186.342 977.1 186.165 974.687 186.165C972.274 186.165 969.915 186.342 967.661 186.68C953.459 188.798 942.296 197.414 941.618 208.33C940.891 219.97 952.206 230.309 968.253 233.028H968.25Z" fill="#0F153A"/>
<path d="M967.009 135.738L967.657 186.682C969.911 186.343 972.27 186.166 974.683 186.166C977.096 186.166 979.452 186.343 981.73 186.682L978.902 135.738H967.009Z" fill="#0F153A"/>
<path d="M838.849 213.658H938.176C937.743 211.928 937.581 210.137 937.715 208.327C937.847 206.532 938.259 204.805 938.922 203.16H842.523L838.849 213.658Z" fill="#0F153A"/>
<path d="M976.596 242.172C973.773 242.172 971.002 241.903 968.357 241.391L969.845 372.829H991.256L984.77 241.391C982.159 241.903 979.421 242.172 976.599 242.172H976.596Z" fill="#0F153A"/>
<path d="M1002.33 169.334H1027L1021.92 157.203H996.087L1002.33 169.334Z" fill="#12173C"/>
<path d="M984.805 157.203H991.266L997.727 169.334H985.669L984.805 157.203Z" fill="#12173C"/>
<path d="M993.794 177.942C991.298 177.514 988.769 177.453 986.248 177.432L985.903 172.57H999.458L1003.73 180.597C1000.57 179.446 997.234 178.527 993.797 177.938L993.794 177.942Z" fill="#12173C"/>
<path d="M947.775 208.329C947.28 219.355 959.964 228.816 976.133 228.816C992.302 228.816 1004.34 219.355 1003.09 208.329C1001.92 197.956 989.287 189.984 974.81 189.984C960.333 189.984 948.239 197.956 947.775 208.329Z" fill="#3C4375"/>
<path d="M974.415 191.488C974.415 191.488 950.428 194.302 953.449 206.622C956.7 219.879 970.019 219.879 967.972 211.334C966.02 203.183 973.132 201.41 976.889 197.683C980.567 194.037 980.668 191.638 974.412 191.488H974.415Z" fill="#0F153A"/>
<path d="M962.887 153.655L962.844 174.685C962.844 174.685 930.078 181.045 924.967 200.574H855.164L873.032 154.031L962.887 153.652V153.655Z" fill="#5E6596"/>
<path d="M887.063 237.662H917.74L921.684 219.184H893.891L887.063 237.662Z" fill="#12173C"/>
<path d="M848.956 237.662H879.629L887.156 219.184H859.363L848.956 237.662Z" fill="#12173C"/>
<path d="M876.514 266.22H911.645L916.746 242.309H885.348L876.514 266.22Z" fill="#12173C"/>
<path d="M832.872 266.22H868.003L877.738 242.309H846.341L832.872 266.22Z" fill="#12173C"/>
<path d="M863.714 305.788L874.088 272.789H910.242L906.937 295.202L863.714 305.788Z" fill="#12173C"/>
<path d="M938.76 242.309C943.303 246.722 948.838 250.771 955.363 253.136L954.899 266.22H919.967L924.186 242.309H938.76Z" fill="#12173C"/>
<path d="M1098.68 278.367C1096.8 278.407 996.191 308.571 996.191 308.571L999.038 347.796H1121L1098.68 278.367Z" fill="#03E484"/>
<path d="M868.734 42.8906H1024.48V155.133H868.734V42.8906Z" fill="#12173C"/>
<path d="M953.501 272.359L919.601 273.476L917.808 294.647L953.715 284.387L953.501 272.359Z" fill="#12173C"/>
<path d="M1007.04 246.039L1012.34 272.919L991.707 277.934L988.918 251.191L1007.04 246.039Z" fill="#12173C"/>
</g>
<path d="M911.889 65.2904L926.42 65.1714L973.129 7.71484L958.53 7.83692L911.889 65.2904Z" fill="#F13005"/>
<path d="M926.418 65.1693L940.941 65.0503L987.723 7.59375L973.127 7.71277L926.418 65.1693Z" fill="#2B2B2B"/>
<path d="M940.942 65.0521L955.477 64.9331L1002.31 7.47656L987.724 7.59558L940.942 65.0521Z" fill="#F13005"/>
<path d="M897.363 65.4084L911.886 65.2894L958.527 7.83594L943.941 7.95496L897.363 65.4084Z" fill="#2B2B2B"/>
<path d="M868.313 65.6437L882.833 65.5246L929.346 8.07422L914.759 8.19324L868.313 65.6437Z" fill="#2B2B2B"/>
<path d="M826.16 65.9878L839.262 65.881L885.576 8.43359L872.428 8.54041L826.16 65.9878Z" fill="#F13005"/>
<path d="M839.263 65.882L853.782 65.7629L900.164 8.3125L885.577 8.43457L839.263 65.882Z" fill="#2B2B2B"/>
<path d="M882.832 65.5265L897.364 65.4105L943.941 7.95703L929.345 8.07605L882.832 65.5265Z" fill="#F13005"/>
<path d="M853.78 65.7648L868.312 65.6457L914.758 8.19531L900.162 8.31433L853.78 65.7648Z" fill="#F13005"/>
<path d="M940.941 65.0526L940.935 73.7991C940.929 83.0675 955.442 82.9485 955.457 73.6801L955.473 64.9336L940.941 65.0526Z" fill="#D62B04"/>
<path d="M926.419 65.1698V73.9163C926.428 83.1847 940.929 83.0657 940.935 73.7973L940.941 65.0508L926.419 65.1698Z" fill="black"/>
<path d="M911.888 65.2909L911.903 74.0374C911.918 83.3058 926.432 83.1867 926.426 73.9184V65.1719L911.888 65.2909Z" fill="#D62B04"/>
<path d="M897.364 65.4081L897.389 74.1546C897.413 83.4229 911.918 83.3039 911.902 74.0356L911.887 65.2891L897.364 65.4081Z" fill="black"/>
<path d="M882.834 65.5253L882.868 74.2718C882.905 83.5401 897.415 83.4211 897.391 74.1528L897.366 65.4062L882.834 65.5253Z" fill="#D62B04"/>
<path d="M868.314 65.6425L868.357 74.389C868.402 83.6573 882.904 83.5383 882.867 74.2699L882.834 65.5234L868.311 65.6425H868.314Z" fill="black"/>
<path d="M853.782 65.7635L853.837 74.5101C853.895 83.7754 868.405 83.6594 868.359 74.391L868.316 65.6445L853.785 65.7635H853.782Z" fill="#D62B04"/>
<path d="M839.261 65.8807L839.325 74.6272C839.392 83.8926 853.894 83.7766 853.836 74.5082L853.781 65.7617L839.261 65.8807Z" fill="black"/>
<path d="M826.16 65.9896L826.233 74.7361C826.309 84.0014 839.393 83.8946 839.326 74.6293L839.262 65.8828L826.16 65.9896Z" fill="#D62B04"/>
<path d="M955.477 64.9331L954.338 65.0918L1002.38 64.6645L1002.31 7.47656L955.477 64.9331Z" fill="#F13005"/>
<path d="M960.143 297.141C966.931 290.384 956.23 274.167 940.446 258.877C934.076 252.707 926.876 246.688 919.667 241.503C919.419 241.378 919.208 241.229 919.05 241.061C918.943 240.985 918.833 240.905 918.726 240.829C918.726 240.753 918.738 240.67 918.762 240.591C918.729 240.478 918.717 240.359 918.732 240.24L923.045 217.663L889.54 217.342C889.045 217.342 888.581 217.095 888.303 216.686C888.025 216.274 887.973 215.752 888.159 215.294L894.22 200.417C894.449 199.855 894.993 199.489 895.601 199.489H926.143C926.876 197.707 928.727 193.862 932.405 189.717C936.933 184.611 945.223 178.059 958.995 175.828C962.056 175.703 961.915 178.462 959.471 178.767C949.167 180.434 940.846 184.746 934.733 191.582C930.163 196.694 928.608 201.384 928.593 201.43C928.394 202.046 927.823 202.465 927.172 202.465H896.603L891.755 214.367H925.233C927.362 214.425 927.994 215.868 927.942 217.711L925.627 238.391C946.864 250.253 970.67 265.894 981.542 275.491C996.251 288.48 996.083 311.234 978.182 327.958C937.388 366.066 871.315 391.708 802.193 408.798C663.531 443.082 57.9738 480.094 48.7787 480.931C17.4238 483.503 -23.288 478.749 -19.5458 443.375C-15.8005 408.001 -75.1072 410.379 -81.501 408.798C-11.142 405.987 901.164 355.864 960.143 297.147V297.141Z" fill="#1E1E1E"/>
<path d="M-127.498 415.756C-107.48 415.271 -68.5916 416.94 -64.1559 443.515C-63.6793 446.64 -64.0428 449.79 -64.2659 452.906C-64.6906 459.946 -62.8699 467.2 -58.1807 472.565C-43.6152 487.742 -19.986 487.425 -0.361755 486.723C58.6669 482.179 676.77 434.844 734.745 422.954C799.245 409.282 864.78 394.908 923.739 364.43C944.875 353.168 965.843 340.232 982.333 322.681C994.076 309.414 995.536 287.74 981.542 275.484C989.732 282.259 993.829 293.313 992.201 303.799C988.623 327.533 961.005 342.89 942.657 355.399C900.794 380.824 853.792 396.507 806.589 408.708C725.348 428.878 83.3347 482.676 -0.181519 489.5C-22.7629 490.571 -56.6044 490.065 -65.7352 464.887C-68.3043 458.048 -66.4745 450.91 -67.0763 443.912C-70.7054 420.157 -110.024 417.819 -127.501 417.642V415.753L-127.498 415.756Z" fill="black"/>
<path d="M921.238 345.177C903.884 352.877 883.676 359.823 861.718 366.088C860.533 364.288 858.464 360.876 857.847 360.076C879.14 354.754 898.758 348.788 915.691 342.113C917.536 343.142 919.384 344.161 921.238 345.177Z" fill="white"/>
<path d="M974.972 298.409C975.378 298.467 977.15 299.023 977.898 299.3C976.967 303.491 974.419 308.2 971.282 312.023C970.802 312.588 970.304 313.147 969.794 313.705C968.734 312.966 967.674 312.225 966.611 311.486C969.931 307.864 973.218 303.262 974.969 298.406L974.972 298.409Z" fill="white"/>
<path d="M949.339 259.048C946.767 257.056 944.079 255.029 941.21 252.817C941.54 252.707 941.873 252.6 942.206 252.496C945.023 254.361 947.977 256.341 950.928 258.411C950.399 258.627 949.871 258.838 949.339 259.048Z" fill="white"/>
<path d="M954.421 262.273C958.034 264.852 961.602 267.553 964.871 270.33C964.156 270.785 963.402 271.188 962.65 271.569C959.458 268.429 956.198 265.695 952.734 262.966C953.299 262.74 953.861 262.508 954.424 262.276L954.421 262.273Z" fill="white"/>
<path d="M966.615 276.233C967.47 275.763 968.319 275.253 969.107 274.68C975.804 281.064 979.133 286.805 978.522 293.989C977.652 293.989 975.846 293.885 974.954 293.744C975.104 285.968 970.155 280.115 966.615 276.233Z" fill="white"/>
<path d="M960.773 322.152C954.322 327.407 946.59 332.391 937.789 337.115C936.194 336.267 934.606 335.409 933.017 334.552C942.493 329.956 950.72 325.055 957.441 319.836C958.553 320.608 959.661 321.377 960.773 322.149V322.152Z" fill="white"/>
<path d="M825.856 367.363C828.306 369.451 830.753 371.538 833.203 373.626C806.119 380.285 777.294 386.068 748.468 391.088C745.758 389.324 739.267 383.819 737.275 382.372C767.319 378.222 797.507 373.262 825.853 367.363H825.856Z" fill="white"/>
<path d="M544.949 401.474C573.121 399.518 636.402 394.104 674.621 390.012C679.386 393.515 684.158 397.013 688.93 400.51C652.977 405.683 591.279 412.296 563.095 415.494C557.092 410.764 551.028 406.107 544.949 401.477V401.474Z" fill="white"/>
<path d="M285 424.744C324.328 422.057 412.67 414.621 466.025 409C472.677 413.812 479.339 418.616 486 423.419C435.81 430.524 349.677 439.607 310.332 444C301.952 437.503 293.487 431.107 285 424.748V424.744Z" fill="white"/>
<path d="M-7 453.744C32.3283 451.057 120.67 443.621 174.025 438C180.677 442.812 187.339 447.616 194 452.419C143.81 459.524 57.6772 468.607 18.3318 473C9.95181 466.503 1.48659 460.107 -7 453.748V453.744Z" fill="white"/>
<path d="M958.84 179.961C952.779 179.961 947.867 178.389 947.867 176.451C947.867 174.513 952.779 172.941 958.84 172.941C964.9 172.941 969.812 174.513 969.812 176.451C969.812 178.389 964.9 179.961 958.84 179.961Z" fill="#222222"/>
<path d="M954.892 176.142C954.892 176.908 956.835 177.531 959.233 177.531C961.631 177.531 963.574 176.908 963.574 176.142C963.574 175.376 961.631 174.754 959.233 174.754C956.835 174.754 954.892 175.376 954.892 176.142Z" fill="white"/>
<path d="M959.236 112.934C971.733 112.934 981.869 123.06 981.869 135.544C981.869 148.029 959.236 170.872 959.236 170.872C959.236 170.872 936.596 148.036 936.596 135.544C936.596 123.053 946.732 112.934 959.236 112.934ZM959.236 148.255C966.289 148.255 972.005 142.545 972.005 135.499C972.005 128.452 966.289 122.742 959.236 122.742C952.182 122.742 946.461 128.452 946.461 135.499C946.461 142.545 952.182 148.255 959.236 148.255Z" fill="#FF3305"/>
<path d="M788.11 85.6128C788.095 85.4114 788.083 85.21 788.083 85.0055C788.083 80.7238 791.556 77.2539 795.842 77.2539C800.128 77.2539 803.602 80.7238 803.602 85.0055C803.602 85.21 803.592 85.4114 803.574 85.6128H788.107H788.11Z" fill="white"/>
<path d="M762.618 85.6128C762.603 85.4114 762.591 85.21 762.591 85.0055C762.591 80.7238 766.064 77.2539 770.35 77.2539C774.636 77.2539 778.109 80.7238 778.109 85.0055C778.109 85.21 778.1 85.4114 778.085 85.6128H762.618Z" fill="white"/>
<path d="M756.018 85.6118C755.996 85.4134 755.984 85.209 755.984 85.0045C755.984 81.9771 758.44 79.5234 761.471 79.5234C764.501 79.5234 766.957 81.9771 766.957 85.0045C766.957 85.209 766.945 85.4134 766.923 85.6118H756.018Z" fill="white"/>
<path d="M771.545 85.6118C771.484 85.1388 771.453 84.6566 771.453 84.1683C771.453 77.8968 776.543 72.8125 782.82 72.8125C789.098 72.8125 794.188 77.8968 794.188 84.1683C794.188 84.6566 794.157 85.1388 794.096 85.6118H771.545Z" fill="white"/>
<path d="M88.1261 114.8C88.1109 114.599 88.0986 114.397 88.0986 114.193C88.0986 109.911 91.572 106.441 95.8579 106.441C100.144 106.441 103.617 109.911 103.617 114.193C103.617 114.397 103.608 114.599 103.59 114.8H88.1231H88.1261Z" fill="white"/>
<path d="M62.6339 114.8C62.6186 114.599 62.6064 114.397 62.6064 114.193C62.6064 109.911 66.0798 106.441 70.3657 106.441C74.6516 106.441 78.125 109.911 78.125 114.193C78.125 114.397 78.1158 114.599 78.1005 114.8H62.6339Z" fill="white"/>
<path d="M56.0333 114.799C56.0119 114.601 55.9997 114.396 55.9997 114.192C55.9997 111.165 58.4557 108.711 61.4861 108.711C64.5165 108.711 66.9727 111.165 66.9727 114.192C66.9727 114.396 66.9604 114.601 66.9391 114.799H56.0333Z" fill="white"/>
<path d="M71.5607 114.799C71.4996 114.326 71.469 113.844 71.469 113.356C71.469 107.084 76.5584 102 82.8361 102C89.1137 102 94.2031 107.084 94.2031 113.356C94.2031 113.844 94.1726 114.326 94.1115 114.799H71.5607Z" fill="white"/>
<path d="M464.126 47.8003C464.111 47.5989 464.099 47.3975 464.099 47.193C464.099 42.9113 467.572 39.4414 471.858 39.4414C476.144 39.4414 479.617 42.9113 479.617 47.193C479.617 47.3975 479.608 47.5989 479.59 47.8003H464.123H464.126Z" fill="white"/>
<path d="M438.634 47.8003C438.619 47.5989 438.606 47.3975 438.606 47.193C438.606 42.9113 442.08 39.4414 446.366 39.4414C450.652 39.4414 454.125 42.9113 454.125 47.193C454.125 47.3975 454.116 47.5989 454.101 47.8003H438.634Z" fill="white"/>
<path d="M432.033 47.7993C432.012 47.6009 432 47.3965 432 47.192C432 44.1646 434.456 41.7109 437.486 41.7109C440.517 41.7109 442.973 44.1646 442.973 47.192C442.973 47.3965 442.96 47.6009 442.939 47.7993H432.033Z" fill="white"/>
<path d="M447.561 47.7993C447.5 47.3263 447.469 46.8441 447.469 46.3558C447.469 40.0843 452.558 35 458.836 35C465.114 35 470.203 40.0843 470.203 46.3558C470.203 46.8441 470.173 47.3263 470.111 47.7993H447.561Z" fill="white"/>
<path d="M698.402 40.8777C698.378 40.5512 698.36 40.2216 698.36 39.8859C698.36 32.9033 704.026 27.2422 711.016 27.2422C718.005 27.2422 723.672 32.9033 723.672 39.8859C723.672 40.2185 723.654 40.5481 723.629 40.8777H698.399H698.402Z" fill="white"/>
<path d="M656.824 40.8777C656.8 40.5512 656.781 40.2216 656.781 39.8859C656.781 32.9033 662.448 27.2422 669.438 27.2422C676.427 27.2422 682.094 32.9033 682.094 39.8859C682.094 40.2185 682.075 40.5481 682.051 40.8777H656.821H656.824Z" fill="white"/>
<path d="M646.056 40.879C646.019 40.5524 646.001 40.2228 646.001 39.8871C646.001 34.9493 650.009 30.9453 654.952 30.9453C659.894 30.9453 663.902 34.9493 663.902 39.8871C663.902 40.2228 663.881 40.5524 663.847 40.879H646.059H646.056Z" fill="white"/>
<path d="M671.379 40.8775C671.281 40.1054 671.229 39.318 671.229 38.5215C671.229 28.2918 679.529 20 689.769 20C700.009 20 708.309 28.2918 708.309 38.5215C708.309 39.321 708.257 40.1054 708.159 40.8775H671.373H671.379Z" fill="white"/>
<path d="M240.402 65.8777C240.378 65.5512 240.36 65.2216 240.36 64.8859C240.36 57.9033 246.026 52.2422 253.016 52.2422C260.005 52.2422 265.672 57.9033 265.672 64.8859C265.672 65.2185 265.654 65.5481 265.629 65.8777H240.399H240.402Z" fill="white"/>
<path d="M198.824 65.8777C198.8 65.5512 198.781 65.2216 198.781 64.8859C198.781 57.9033 204.448 52.2422 211.438 52.2422C218.427 52.2422 224.094 57.9033 224.094 64.8859C224.094 65.2185 224.075 65.5481 224.051 65.8777H198.821H198.824Z" fill="white"/>
<path d="M188.056 65.879C188.019 65.5524 188.001 65.2228 188.001 64.8871C188.001 59.9493 192.009 55.9453 196.952 55.9453C201.894 55.9453 205.902 59.9493 205.902 64.8871C205.902 65.2228 205.881 65.5524 205.847 65.879H188.059H188.056Z" fill="white"/>
<path d="M213.379 65.8775C213.281 65.1054 213.229 64.318 213.229 63.5215C213.229 53.2918 221.529 45 231.769 45C242.009 45 250.309 53.2918 250.309 63.5215C250.309 64.321 250.257 65.1054 250.159 65.8775H213.373H213.379Z" fill="white"/>
<path style="mix-blend-mode:screen" opacity="0.5" d="M473.479 140.157C544.513 137.353 619.186 129.068 695.788 117.862L698.844 123.186C622.06 145.744 560.193 159.215 502.597 164.444C498.781 159.35 481.807 143.582 473.479 140.157Z" fill="url(#paint0_linear_1174_3261)"/>
<path style="mix-blend-mode:screen" opacity="0.5" d="M435.722 88.1078C506.757 85.3036 552.319 83.9547 622.632 76L624.49 79.2408C546.172 92.9211 506.625 96.1796 449.032 101.408C448.059 97.383 442.004 90.3476 435.719 88.1078H435.722Z" fill="url(#paint1_linear_1174_3261)"/>
<path style="mix-blend-mode:screen" opacity="0.5" d="M631.1 294.361C694.903 289.874 755.811 279.012 803.036 246.231L804.895 249.472C757.425 291.684 710.612 317.629 646.698 326.609C645.724 322.584 637.506 303.466 631.096 294.361H631.1Z" fill="url(#paint2_linear_1174_3261)"/>
<g style="mix-blend-mode:soft-light" opacity="0.6">
<path d="M622.243 371.724L368.328 397.615C336.751 403.365 362.498 432.43 423.114 428.355C423.114 428.355 571.348 410.404 648.401 398.516C676.251 394.221 669.095 365.799 622.243 371.724Z" fill="#222222"/>
</g>
<path d="M571.598 254.987L653.992 247.714L652.589 161.88L570.195 169.154L571.598 254.987Z" fill="#724F14"/>
<path d="M655.641 158.677L655.936 176.709L567.874 184.483L567.565 165.571L655.641 158.677Z" fill="#724F14"/>
<path d="M613.276 251.992L681.535 245.943L680.125 160.113L611.865 166.158L613.276 251.992Z" fill="#9D7022"/>
<path d="M682.641 156.565L682.943 174.991L609.99 181.455L609.688 162.273L682.641 156.565Z" fill="#9D7022"/>
<path d="M680.317 174.785L680.391 175.62L594.9 183.197L594.826 182.362L680.317 174.785Z" fill="#724F14"/>
<path d="M673.471 246.759L678.584 246.309L677.109 157L672 157.454L673.471 246.759Z" fill="#7C0C0C"/>
<path d="M624.963 234.862C624.986 236.019 625.983 236.915 627.135 236.815L668.173 233.249C669.207 233.159 670 232.294 670 231.257V185.166C670 183.998 669.005 183.079 667.841 183.172L625.878 186.515C624.823 186.6 624.016 187.491 624.038 188.549L624.963 234.862Z" fill="black"/>
<path d="M630.377 231.872L630.45 231.882L630.194 232.735L627.881 232.94V232.857L627.993 232.847C628.12 232.836 628.21 232.785 628.264 232.696C628.295 232.646 628.31 232.533 628.31 232.358V230.384C628.31 230.193 628.29 230.075 628.249 230.031C628.191 229.969 628.106 229.944 627.993 229.954L627.881 229.964V229.88L629.234 229.76V229.844C629.075 229.856 628.963 229.881 628.899 229.919C628.836 229.956 628.792 230 628.769 230.05C628.745 230.1 628.733 230.216 628.733 230.398V232.321C628.733 232.446 628.745 232.53 628.769 232.575C628.786 232.605 628.814 232.626 628.85 232.638C628.887 232.649 629.001 232.647 629.194 232.63L629.412 232.61C629.641 232.59 629.802 232.558 629.894 232.515C629.987 232.473 630.071 232.404 630.148 232.31C630.224 232.215 630.301 232.069 630.377 231.872Z" fill="white"/>
<path d="M633.571 229.305C633.959 229.27 634.294 229.392 634.578 229.669C634.863 229.944 635.005 230.308 635.005 230.759C635.005 231.224 634.862 231.622 634.576 231.955C634.289 232.287 633.943 232.471 633.536 232.508C633.125 232.544 632.779 232.425 632.498 232.151C632.219 231.876 632.08 231.501 632.08 231.026C632.08 230.54 632.241 230.129 632.564 229.794C632.845 229.502 633.18 229.339 633.571 229.305ZM633.529 229.473C633.262 229.497 633.048 229.618 632.886 229.835C632.685 230.106 632.584 230.485 632.584 230.972C632.584 231.471 632.688 231.847 632.897 232.097C633.057 232.288 633.269 232.371 633.531 232.348C633.812 232.323 634.043 232.19 634.225 231.95C634.409 231.709 634.501 231.348 634.501 230.865C634.501 230.341 634.4 229.96 634.199 229.721C634.037 229.53 633.814 229.448 633.529 229.473Z" fill="white"/>
<path d="M639.867 228.745L639.944 229.704L639.867 229.711C639.789 229.477 639.688 229.305 639.565 229.194C639.387 229.034 639.159 228.966 638.88 228.991C638.5 229.025 638.21 229.205 638.012 229.531C637.846 229.806 637.763 230.123 637.763 230.482C637.763 230.774 637.818 231.036 637.928 231.266C638.038 231.497 638.182 231.661 638.36 231.758C638.539 231.854 638.723 231.893 638.911 231.876C639.021 231.867 639.127 231.843 639.23 231.805C639.333 231.767 639.432 231.716 639.528 231.652V230.768C639.528 230.614 639.516 230.515 639.492 230.471C639.47 230.425 639.435 230.392 639.387 230.372C639.34 230.35 639.256 230.345 639.136 230.356V230.27L640.292 230.167V230.253L640.237 230.258C640.122 230.268 640.044 230.314 640.001 230.396C639.972 230.454 639.957 230.566 639.957 230.73V231.666C639.788 231.774 639.622 231.858 639.457 231.916C639.293 231.974 639.11 232.012 638.909 232.03C638.331 232.081 637.893 231.931 637.593 231.578C637.369 231.314 637.256 230.996 637.256 230.624C637.256 230.355 637.319 230.092 637.446 229.834C637.596 229.527 637.801 229.283 638.063 229.102C638.281 228.951 638.54 228.863 638.838 228.837C638.947 228.827 639.045 228.827 639.133 228.837C639.223 228.847 639.349 228.876 639.512 228.923C639.594 228.948 639.65 228.958 639.677 228.956C639.705 228.954 639.729 228.939 639.748 228.911C639.769 228.882 639.781 228.829 639.785 228.752L639.867 228.745Z" fill="white"/>
<path d="M643.667 231.454V231.537L642.387 231.651V231.567L642.492 231.558C642.616 231.547 642.705 231.502 642.761 231.424C642.796 231.372 642.814 231.255 642.814 231.071V229.095C642.814 228.94 642.804 228.838 642.785 228.79C642.771 228.754 642.741 228.724 642.695 228.701C642.63 228.671 642.563 228.659 642.492 228.665L642.387 228.675V228.591L643.667 228.477V228.561L643.559 228.57C643.437 228.581 643.348 228.626 643.292 228.705C643.255 228.756 643.237 228.874 643.237 229.057V231.034C643.237 231.189 643.247 231.29 643.266 231.338C643.28 231.374 643.311 231.404 643.358 231.427C643.421 231.457 643.488 231.47 643.559 231.463L643.667 231.454Z" fill="white"/>
<path d="M648.305 227.995V229.053L648.224 229.061C648.197 228.86 648.15 228.702 648.081 228.588C648.013 228.474 647.916 228.387 647.79 228.327C647.664 228.268 647.533 228.244 647.398 228.256C647.245 228.27 647.119 228.329 647.019 228.434C646.919 228.538 646.869 228.651 646.869 228.773C646.869 228.866 646.901 228.948 646.964 229.019C647.055 229.124 647.271 229.255 647.614 229.413C647.893 229.541 648.083 229.643 648.184 229.716C648.287 229.788 648.366 229.878 648.42 229.984C648.476 230.09 648.504 230.205 648.504 230.326C648.504 230.558 648.416 230.766 648.239 230.95C648.064 231.133 647.839 231.236 647.563 231.261C647.476 231.268 647.395 231.269 647.318 231.262C647.273 231.259 647.178 231.24 647.034 231.206C646.892 231.171 646.801 231.155 646.763 231.158C646.726 231.161 646.697 231.175 646.675 231.2C646.655 231.224 646.639 231.272 646.629 231.344L646.547 231.351V230.302L646.629 230.295C646.667 230.511 646.718 230.671 646.783 230.775C646.848 230.878 646.946 230.959 647.078 231.02C647.212 231.08 647.358 231.103 647.517 231.089C647.7 231.073 647.845 231.01 647.951 230.901C648.058 230.793 648.111 230.67 648.111 230.535C648.111 230.46 648.091 230.386 648.05 230.313C648.01 230.239 647.948 230.174 647.863 230.115C647.805 230.075 647.649 229.993 647.393 229.87C647.138 229.745 646.956 229.644 646.847 229.567C646.74 229.489 646.658 229.4 646.602 229.299C646.547 229.199 646.519 229.086 646.519 228.959C646.519 228.74 646.601 228.544 646.765 228.371C646.93 228.197 647.139 228.099 647.393 228.076C647.552 228.062 647.72 228.087 647.898 228.151C647.98 228.181 648.038 228.195 648.072 228.192C648.11 228.188 648.141 228.174 648.164 228.15C648.189 228.123 648.209 228.074 648.224 228.002L648.305 227.995Z" fill="white"/>
<path d="M653.275 227.623L653.308 228.338L653.224 228.345C653.208 228.22 653.186 228.132 653.158 228.08C653.113 227.997 653.052 227.939 652.975 227.905C652.9 227.869 652.801 227.857 652.678 227.868L652.257 227.906V230.243C652.257 230.431 652.277 230.547 652.317 230.59C652.372 230.648 652.458 230.672 652.574 230.662L652.678 230.653V230.736L651.411 230.849V230.765L651.517 230.756C651.643 230.745 651.733 230.698 651.786 230.615C651.818 230.564 651.834 230.452 651.834 230.281V227.943L651.475 227.975C651.335 227.987 651.236 228.007 651.178 228.033C651.101 228.068 651.036 228.129 650.981 228.215C650.927 228.301 650.895 228.414 650.885 228.553L650.801 228.561L650.836 227.84L653.275 227.623Z" fill="white"/>
<path d="M657.275 230.244V230.328L655.995 230.441V230.358L656.101 230.348C656.224 230.337 656.313 230.293 656.369 230.214C656.405 230.163 656.422 230.045 656.422 229.862V227.885C656.422 227.73 656.413 227.629 656.394 227.581C656.379 227.544 656.349 227.515 656.303 227.492C656.239 227.461 656.171 227.449 656.101 227.456L655.995 227.465V227.381L657.275 227.268V227.351L657.167 227.361C657.045 227.372 656.956 227.416 656.9 227.495C656.864 227.546 656.845 227.664 656.845 227.847V229.824C656.845 229.979 656.855 230.081 656.874 230.128C656.888 230.165 656.919 230.194 656.966 230.217C657.029 230.248 657.096 230.26 657.167 230.254L657.275 230.244Z" fill="white"/>
<path d="M662.561 226.728L662.63 227.762L662.561 227.768C662.47 227.465 662.34 227.252 662.171 227.13C662.002 227.008 661.8 226.958 661.563 226.979C661.365 226.997 661.186 227.064 661.026 227.183C660.866 227.299 660.739 227.474 660.647 227.708C660.556 227.942 660.51 228.226 660.51 228.562C660.51 228.839 660.553 229.075 660.64 229.27C660.727 229.466 660.857 229.61 661.03 229.703C661.205 229.795 661.404 229.832 661.627 229.812C661.821 229.795 661.992 229.737 662.14 229.64C662.289 229.541 662.452 229.357 662.63 229.089L662.698 229.128C662.548 229.414 662.373 229.628 662.173 229.772C661.974 229.917 661.737 230.001 661.462 230.025C660.967 230.069 660.584 229.915 660.312 229.563C660.109 229.302 660.008 228.981 660.008 228.602C660.008 228.297 660.075 228.01 660.208 227.743C660.342 227.475 660.526 227.261 660.759 227.1C660.994 226.938 661.25 226.844 661.528 226.82C661.744 226.801 661.957 226.836 662.167 226.925C662.229 226.953 662.273 226.966 662.299 226.963C662.339 226.96 662.373 226.942 662.403 226.911C662.441 226.867 662.468 226.808 662.484 226.735L662.561 226.728Z" fill="white"/>
<path d="M666.839 226.348V227.406L666.757 227.413C666.731 227.212 666.683 227.055 666.614 226.941C666.547 226.826 666.45 226.739 666.323 226.68C666.197 226.621 666.066 226.597 665.931 226.609C665.779 226.622 665.652 226.682 665.552 226.787C665.453 226.891 665.403 227.003 665.403 227.125C665.403 227.218 665.434 227.301 665.497 227.372C665.588 227.476 665.805 227.608 666.147 227.765C666.426 227.894 666.616 227.995 666.718 228.069C666.821 228.141 666.899 228.23 666.954 228.337C667.009 228.443 667.037 228.557 667.037 228.679C667.037 228.911 666.949 229.119 666.773 229.303C666.598 229.485 666.373 229.589 666.097 229.613C666.01 229.621 665.928 229.621 665.852 229.615C665.806 229.611 665.712 229.593 665.568 229.559C665.425 229.523 665.335 229.507 665.297 229.511C665.26 229.514 665.231 229.528 665.209 229.552C665.188 229.577 665.173 229.625 665.162 229.696L665.081 229.704V228.654L665.162 228.647C665.201 228.863 665.252 229.023 665.317 229.128C665.381 229.23 665.48 229.312 665.612 229.372C665.746 229.432 665.892 229.456 666.05 229.441C666.234 229.425 666.379 229.363 666.484 229.254C666.592 229.145 666.645 229.023 666.645 228.888C666.645 228.812 666.625 228.738 666.583 228.665C666.544 228.592 666.481 228.526 666.396 228.467C666.339 228.427 666.182 228.346 665.927 228.223C665.671 228.098 665.489 227.997 665.381 227.919C665.273 227.841 665.192 227.752 665.136 227.652C665.08 227.552 665.052 227.438 665.052 227.312C665.052 227.092 665.135 226.896 665.299 226.724C665.464 226.55 665.673 226.451 665.927 226.429C666.086 226.415 666.254 226.439 666.431 226.503C666.514 226.534 666.572 226.547 666.605 226.544C666.644 226.541 666.674 226.527 666.698 226.502C666.723 226.476 666.743 226.427 666.757 226.355L666.839 226.348Z" fill="white"/>
<path fill-rule="evenodd" clip-rule="evenodd" d="M636.043 217.201V227.779L638.864 227.528V223.578L640.687 227.366L643.748 227.094L641.839 223.314C642.683 223.258 643.173 222.405 643.173 222.135V217.434C643.173 217.155 642.549 216.623 642.223 216.652L636.043 217.201ZM640.38 218.867L638.874 219.001V221.516L640.38 221.382V218.867Z" fill="#FF0000"/>
<path d="M631.773 221.704L634.421 220.9V218.462C634.421 218.087 633.903 217.391 633.202 217.453L628.52 217.87C628.165 217.901 627.426 218.737 627.426 219.027V227.716C627.426 228.015 627.886 228.504 628.184 228.477L633.433 228.011C634.009 227.959 634.431 227.498 634.431 227.113V223.914L631.773 224.748V226.26L630.074 226.411V219.793L631.773 219.642V221.704Z" fill="white"/>
<path d="M645.015 216.403V226.981L650.82 226.465V224.461L647.692 224.739V222.321L649.87 222.128L650.408 220.076L647.692 220.317V218.198L650.82 217.939V215.887L645.015 216.403Z" fill="white"/>
<path d="M652.624 215.727V226.305L658.459 225.786V223.782L655.331 224.06V221.642L657.461 221.453L658.056 219.396L655.331 219.638V217.538L658.459 217.26V215.208L652.624 215.727Z" fill="white"/>
<path fill-rule="evenodd" clip-rule="evenodd" d="M660.023 215.069V225.647L665.915 225.123C666.366 225.083 667.037 224.282 667.037 223.983V215.457C667.037 215.043 666.481 214.495 665.78 214.557L660.023 215.069ZM664.303 216.741L662.71 216.882V223.404L664.303 223.263V216.741Z" fill="white"/>
<path d="M642.148 199.716C644.822 201.02 645.644 201.252 646.604 201.291C645.807 200.956 645.383 200.684 644.655 200.083C650.904 197.787 654.301 202.707 653.856 206.746C653.184 207.209 652.82 207.457 652.165 207.875C652.997 208.374 653.241 208.72 653.541 209.378C650.877 208.203 649.495 208.021 647.107 208.023C649.787 208.461 652.495 210.018 653.14 210.781C649.729 209.199 645.612 209.564 642.765 210.854C644.381 210.523 645.274 210.387 646.749 210.543C643.632 210.943 641.897 211.935 638.809 214.213C640.694 210.704 641.835 208.789 644.011 205.449C644.39 205.466 644.621 205.457 645.072 205.412C644.719 206.266 644.535 206.712 644.169 207.464C644.582 206.916 644.804 206.577 645.201 205.904C645.633 205.74 645.875 205.647 646.376 205.455L646.389 205.422C646.667 204.74 646.827 204.348 647.107 203.289C648.081 203.014 648.649 202.902 649.701 202.757C647.422 202.499 644.857 202.914 642.32 204.348C642.505 204.471 642.581 204.539 642.693 204.66C642.22 206.423 641.85 207.24 641.102 208.556L641.16 205.386C641.818 203.623 642.052 202.413 642.148 199.716Z" fill="white"/>
<path d="M639.154 190.889C640.988 189.1 643.941 188.104 647.079 187.883C648.148 188.863 648.568 189.841 649.257 191.79C649.237 190.341 649.042 189.52 648.727 188.01C649.285 188.095 649.598 188.147 650.174 188.342C650.415 188.886 650.484 189.223 650.647 189.796C650.674 189.279 650.711 188.974 650.676 188.47C651.923 188.79 653.499 189.657 653.8 190.019C653.895 190.531 653.888 190.937 653.857 191.697C654.068 191.194 654.164 190.903 654.23 190.341L655.118 191.067C655.155 192.03 655.025 192.593 654.76 193.646C655.178 192.937 655.382 192.515 655.692 191.707C656.738 192.664 657.457 194 658.128 196.008C657.95 196.453 657.803 196.709 657.497 197.172C657.815 196.949 657.983 196.8 658.257 196.457C658.801 198.681 658.495 201.721 657.698 205.052C657.584 204.562 657.49 204.315 657.239 203.957C657.684 205.989 657.053 207.728 657.898 211.437C656.953 210.83 656.265 209.266 656.623 206.601C656.354 207.187 656.259 207.492 656.064 208.089C655.849 205.807 656.084 203.532 657.397 200.749C656.903 201.186 656.672 201.463 656.279 201.97C656.364 200.398 656.298 199.56 655.749 198.233C655.944 197.716 656.039 197.427 656.164 196.916C655.46 197.661 654.999 198.095 654.144 198.736C654.017 198.504 653.93 198.418 653.771 198.28C654.531 197.464 654.926 196.784 655.434 195.6C654.735 196.495 654.244 197.015 653.255 197.793C652.518 197.261 652.09 197.047 651.321 196.786C651.851 195.068 652.031 194.139 651.808 192.455C651.584 194.012 651.276 194.873 650.461 196.488C650.251 196.405 650.123 196.368 649.888 196.309C650.011 195.369 650.07 194.846 649.988 193.969C649.787 194.789 649.618 195.274 649.318 196.132L649.314 196.144C648.624 196.084 648.233 196.063 647.523 196.058C647.356 195.277 647.207 194.876 646.807 194.252C646.887 194.946 646.925 195.348 647.007 196.076C646.343 196.156 645.981 196.218 645.359 196.366C644.958 194.387 644.442 193.167 643.41 191.446C643.807 192.555 643.926 193.184 643.926 194.407C642.608 192.467 640.874 191.312 639.154 190.889Z" fill="#FF0000"/>
<path d="M644.668 199.261C646.269 198.881 647.234 198.731 649.039 198.873C648.087 198.405 647.449 198.381 646.331 198.351C650.028 197.807 652.822 198.68 654.857 202.283C653.181 197.195 648.509 195.87 644.382 198.035C644.606 198.495 644.657 198.766 644.668 199.261Z" fill="white"/>
<path d="M616.98 251.086L622.09 250.635L620.622 160.939L615.513 161.39L616.98 251.086Z" fill="#7C0C0C"/>
<path d="M548.145 361.777C541.763 342.201 551.464 321.492 569.813 315.522C588.162 309.552 608.211 320.581 614.593 340.157C620.975 359.733 611.274 380.443 592.925 386.413C574.576 392.383 554.527 381.354 548.145 361.777Z" fill="#222222"/>
<path d="M537.499 353.681C539.489 375.096 556.686 391.403 579.202 389.993C601.719 388.584 618.362 370.083 616.372 348.672C614.382 327.257 594.516 311.043 572 312.448C549.484 313.857 535.509 332.266 537.499 353.677V353.681Z" fill="#222222"/>
<path d="M557.875 358.615C553.362 344.773 560.221 330.129 573.195 325.908C586.168 321.687 600.343 329.487 604.856 343.329C609.369 357.171 602.51 371.815 589.537 376.036C576.563 380.257 562.388 372.457 557.875 358.615Z" fill="#CCCCCC"/>
<path d="M571.386 354.399C569.282 347.946 572.481 341.119 578.53 339.15C584.579 337.182 591.188 340.818 593.292 347.271C595.396 353.725 592.198 360.552 586.149 362.52C580.099 364.488 573.49 360.852 571.386 354.399Z" fill="#737373"/>
<path d="M481.396 344.195C487.728 344.763 557.078 343.812 481.336 266.661C567.212 258.869 608.581 242.594 643.516 342.481L488.275 355.302C480.86 355.767 479.343 346.89 481.4 344.195H481.396Z" fill="#FF3939"/>
<path d="M468.888 267.403L553.598 260.488C562.737 259.732 561.088 240.269 551.95 241.025L467.239 247.94C456.31 248.842 457.958 268.304 468.888 267.403Z" fill="#222222"/>
<path d="M570.349 261.964L642.993 256.235C645.025 256.076 646.532 254.301 646.357 252.278C646.183 250.251 644.393 248.739 642.36 248.898L569.716 254.627C567.684 254.787 566.177 256.562 566.351 258.585C566.525 260.612 568.316 262.124 570.349 261.964Z" fill="#222222"/>
<path d="M634.372 251.888L637.512 254.307L610.961 288.7L607.821 286.281L634.372 251.888Z" fill="#222222"/>
<path d="M496.588 266.052C496.588 266.052 569.126 341.879 496.546 345.503C482.155 345.886 481.391 344.193 481.391 344.193C502.199 340.629 521.887 332.746 505.038 305.861C491.095 283.612 467.573 267.22 467.573 267.22L496.585 266.052H496.588Z" fill="#B81F20"/>
<path d="M537.01 351.164C535.866 348.761 534.86 346.294 534.022 343.763C524.759 315.902 538.89 294.728 564.337 289.429C621.703 277.484 638.324 340.299 638.797 342.755L537.01 351.164Z" fill="#B81F20"/>
<path d="M550.337 350.062C549.193 347.658 548.188 345.191 547.349 342.661C538.086 314.8 551.659 290.474 577.665 288.326C603.674 286.179 632.266 307.022 641.529 334.88C642.371 337.411 643.018 339.91 643.49 342.366L550.337 350.058V350.062Z" fill="#FF3939"/>
<path d="M570.955 314.265L604.65 312.21C605.307 312.171 605.798 311.606 605.737 310.957L605.726 310.843C605.666 310.193 605.08 309.697 604.422 309.736L570.728 311.791C570.071 311.83 569.58 312.394 569.641 313.044L569.651 313.157C569.712 313.807 570.298 314.304 570.955 314.265Z" fill="#222222"/>
<path d="M571.465 319.89L605.16 317.835C605.817 317.796 606.307 317.231 606.247 316.582L606.236 316.468C606.176 315.818 605.59 315.322 604.932 315.361L571.238 317.416C570.581 317.455 570.09 318.019 570.151 318.669L570.161 318.782C570.222 319.432 570.808 319.929 571.465 319.89Z" fill="#222222"/>
<path d="M571.981 325.514L605.675 323.459C606.333 323.42 606.823 322.856 606.763 322.206L606.752 322.093C606.691 321.443 606.105 320.946 605.448 320.985L571.753 323.04C571.096 323.079 570.606 323.644 570.666 324.293L570.677 324.407C570.737 325.056 571.323 325.553 571.981 325.514Z" fill="#222222"/>
<path d="M572.493 331.139L606.187 329.084C606.844 329.045 607.335 328.481 607.274 327.831L607.264 327.718C607.203 327.068 606.617 326.571 605.96 326.61L572.265 328.665C571.608 328.704 571.117 329.269 571.178 329.918L571.189 330.032C571.249 330.681 571.835 331.178 572.493 331.139Z" fill="#222222"/>
<path d="M448.822 155.106C448.822 155.106 458.974 191.024 454.902 204.875C446.559 218.811 383.462 217.476 383.462 217.476L378.836 207.264L420.482 194.684L416.279 169.467C412.079 146.771 437.754 138.98 448.819 155.106H448.822Z" fill="#0F153A"/>
<path d="M490.716 343.494L465.009 345.666C458.226 336.654 412.153 274.787 410.948 260.429C409.939 248.396 414.626 236.661 444.689 224.038C464.846 215.576 488.087 219.761 488.087 219.761C488.087 219.761 505.082 237.619 490.958 248.208C476.834 258.796 450.001 265.043 450.001 265.043L490.716 343.49V343.494Z" fill="black"/>
<path d="M490.822 343.689L438.783 347.722C438.783 347.722 422.989 341.339 433.954 327.68C442.532 319.648 459.8 323.684 466.256 332.536L484.132 331.411L490.822 343.689Z" fill="#222222"/>
<path d="M519.359 341.706L493.652 343.878C486.869 334.866 440.795 272.999 439.59 258.641C438.581 246.608 443.268 234.873 473.331 222.25C493.488 213.788 507.782 215.925 514.818 217.561C521.853 219.198 533.724 235.835 519.6 246.423C505.476 257.012 478.643 263.259 478.643 263.259L519.359 341.706Z" fill="black"/>
<path d="M519.464 341.9L467.425 345.932C467.425 345.932 451.631 339.55 462.596 325.891C471.174 317.858 488.442 321.894 494.898 330.747L512.774 329.621C521.525 333.87 519.759 337.867 519.464 341.9Z" fill="#222222"/>
<path d="M449.471 224.199C436.694 218.924 428.209 191.56 419.948 174.656C405.17 144.477 451.894 122.924 476.88 149.539C499.915 172.747 524.197 194.957 521.173 221.71C499.418 232.274 459.214 229.168 449.475 224.202L449.471 224.199Z" fill="#171F52"/>
<path d="M458.798 227.305L459.207 226.574C454.837 224.132 453.177 218.825 451.252 212.681C449.457 206.952 447.428 200.46 442.681 195.359C430.402 177.976 426.859 165.513 426.046 158.116C425.168 150.122 427.211 146.179 427.229 146.14L426.49 145.746C426.401 145.912 424.319 149.895 425.2 158.109C426.006 165.624 429.577 178.271 442.01 195.866L442.045 195.909C446.675 200.875 448.679 207.278 450.449 212.929C452.424 219.244 454.133 224.696 458.791 227.302L458.798 227.305Z" fill="#386B45"/>
<path d="M476.358 152.309C476.358 152.309 511.313 186.112 500.537 204.904C491.867 220.025 438.048 223.227 434.427 219.138L429.801 208.926C433.709 199.682 453.667 195.977 469.472 192.356L451.468 175.918C435.795 160.725 456.684 134.927 476.354 152.306L476.358 152.309Z" fill="#0F153A"/>
<path d="M424.749 155.653C424.749 155.653 421.782 157.446 422.191 161.851C416.069 156.949 422.18 140.816 437.746 135.175C452.51 129.826 424.749 155.653 424.749 155.653Z" fill="#0F153A"/>
<path d="M442.13 138.353C446.649 143.184 424.748 155.654 424.748 155.654L409.356 134.892L427.239 123.182L442.126 138.353H442.13Z" fill="#FFD5B8"/>
<path d="M433.009 117.021C433.009 117.021 428.215 148.509 402.281 145.847C390.673 144.655 385.578 127.453 385.656 117.397C385.823 95.2863 405.028 84.3925 416.625 89.291C435.855 97.4161 433.097 114.046 433.009 117.021Z" fill="#FFD5B8"/>
<path d="M429.293 128.987C429.293 128.987 424.287 143.242 411.623 145.883C406.517 146.597 405.192 146.007 405.192 146.007C407.306 145.94 421.32 141.652 423.541 126.044C424.329 123.034 430.306 125.302 429.293 128.987Z" fill="#222222"/>
<path d="M421.712 127.71C418.88 122.921 417.42 116.486 415.771 109.749C407.315 110.87 396.137 112.063 384.12 111.925C380.709 111.942 378.907 87.3328 406.437 83.5205C417.548 81.98 431.402 85.7355 437.268 96.64C443.589 108.386 442.001 121.676 436.38 127.618C432.794 131.405 425.56 132.214 421.712 127.71Z" fill="#FF3939"/>
<mask id="mask1_1174_3261" style="mask-type:luminance" maskUnits="userSpaceOnUse" x="382" y="83" width="60" height="48">
<path d="M421.712 127.709C418.88 122.92 417.42 116.485 415.771 109.748C407.315 110.869 396.137 112.062 384.12 111.924C380.709 111.941 378.907 87.3319 406.437 83.5196C417.548 81.979 431.402 85.7345 437.268 96.639C443.589 108.385 442.001 121.675 436.38 127.617C432.794 131.404 425.56 132.213 421.712 127.709Z" fill="white"/>
</mask>
<g mask="url(#mask1_1174_3261)">
<path d="M391.817 111.647L393.359 111.96C390.744 102.017 396.947 94.3608 401.016 91.0774C407.994 85.437 417.922 82.7073 422.694 85.1175L423.305 83.9071C418.021 81.2413 407.635 83.9852 400.16 90.0231C395.839 93.516 389.006 100.967 391.817 111.651V111.647Z" fill="white"/>
<path d="M389.063 112.578L390.367 112.195C388.27 105.078 390.043 98.0284 395.355 92.3419C401.421 85.8532 410.765 82.655 418.607 84.3837L418.898 83.0597C410.602 81.2281 400.745 84.586 394.364 91.4155C388.711 97.4641 386.828 104.979 389.066 112.575L389.063 112.578Z" fill="white"/>
</g>
<path d="M410.863 128.557C410.863 128.557 405.81 134.741 394.344 133.967C394.344 133.967 400.843 142.809 408.557 139.142C416.27 135.475 410.863 128.557 410.863 128.557Z" fill="white"/>
<path d="M415.773 109.751C403.067 111.068 390.827 112.229 383.486 111.771C383.486 111.771 375.062 114.352 377.289 116.073C379.517 117.795 415.773 109.751 415.773 109.751Z" fill="#222222"/>
<path d="M437.75 135.177C437.75 135.177 442.472 132.976 444.742 137.69C444.131 149.5 435.134 160.681 430.501 161.789C429.751 159.879 428.142 157.526 424.756 155.655C424.756 155.655 437.725 144.914 437.753 135.177H437.75Z" fill="#0F153A"/>
<path d="M350.49 380.642C344.498 362.262 353.607 342.819 370.834 337.213C388.062 331.608 406.885 341.963 412.877 360.343C418.869 378.722 409.761 398.166 392.533 403.771C375.305 409.376 356.482 399.021 350.49 380.642Z" fill="#222222"/>
<path d="M340.513 373.031C342.382 393.136 358.528 408.449 379.669 407.125C400.81 405.805 416.433 388.433 414.568 368.328C412.699 348.222 394.048 332.998 372.907 334.319C351.766 335.639 338.648 352.926 340.513 373.031Z" fill="#222222"/>
<path d="M359.629 377.663C355.392 364.667 361.832 350.919 374.012 346.956C386.193 342.993 399.502 350.315 403.739 363.311C407.975 376.307 401.536 390.056 389.356 394.019C377.175 397.982 363.866 390.659 359.629 377.663Z" fill="#CCCCCC"/>
<path d="M372.312 373.707C370.336 367.648 373.339 361.237 379.019 359.389C384.698 357.541 390.904 360.955 392.88 367.015C394.855 373.075 391.853 379.486 386.173 381.334C380.493 383.182 374.287 379.767 372.312 373.707Z" fill="#737373"/>
<path d="M364.782 343.581C371.426 351.976 380.422 358.223 390.833 360.832C391.466 360.988 392.102 361.138 392.741 361.265C393.768 361.478 394.799 361.652 395.84 361.784C398.174 362.092 400.537 362.217 402.896 362.156C403.792 362.135 404.687 362.085 405.579 362.014L406.254 361.958L447.385 358.561H447.389L486.622 355.845C505.074 354.691 502.899 347.67 485.262 345.221C430.323 345.448 405.735 287.124 419.624 256.477C424.364 245.267 411.811 236.67 399.752 234.838C398.178 234.597 396.611 234.473 395.093 234.476C394.045 234.476 393.022 234.533 392.034 234.657C391.725 234.7 391.419 234.739 391.117 234.792C389.59 234.994 388.097 235.314 386.662 235.768C382.341 237.138 378.568 239.701 376.066 243.702L357.469 285.69C348.43 306.101 352.736 328.364 364.782 343.581Z" fill="#FF3939"/>
<path d="M368.284 319.258C368.441 320.288 368.626 321.303 368.839 322.3L363.736 322.52C363.616 321.86 363.502 321.211 363.406 320.572C361.125 305.365 365.318 292.973 365.499 292.455L386.661 235.771C388.097 235.317 391.543 234.859 392.588 234.862L370.061 294.553C369.841 295.213 366.312 306.125 368.284 319.258Z" fill="white"/>
<path d="M367.581 198.002C368.125 197.938 368.683 197.924 369.248 197.959C370.2 198.023 371.141 198.233 372.065 198.577C378.93 201.122 384.672 211.036 385.471 222.533C386.022 230.375 384.146 237.169 380.813 241.222C379.754 242.511 378.55 243.519 377.224 244.2L386.161 241.091L386.921 240.825C393.082 238.4 397.147 229.849 396.472 219.42C395.679 207.238 388.708 196.93 380.678 195.776C379.225 195.823 377.718 195.943 376.166 196.146C373.444 196.497 370.584 197.1 367.578 197.998L367.581 198.002Z" fill="#FF6162"/>
<path d="M386.921 240.83L413.232 231.683C413.232 231.683 422.435 227.509 417.18 214.989C417.18 214.989 405.33 194.994 380.675 195.786C388.705 196.939 395.672 207.247 396.468 219.43C397.147 229.858 393.079 238.413 386.918 240.834L386.921 240.83Z" fill="#FF3939"/>
<path d="M367.581 198.009C367.801 199.106 368.156 200.938 368.6 203.263C370.338 212.396 373.426 229.086 375.103 238.187C375.81 242.032 376.272 244.527 376.272 244.527L377.22 244.2C378.546 243.519 379.75 242.511 380.809 241.222C384.145 237.169 386.018 230.375 385.467 222.533C384.664 211.036 378.926 201.122 372.061 198.577C371.141 198.233 370.199 198.02 369.244 197.959C368.679 197.92 368.121 197.938 367.577 198.006L367.581 198.009Z" fill="#FF3939"/>
<path d="M356.324 220.602C357.234 233.64 364.5 244.641 372.548 245.177C374.214 245.287 375.785 244.939 377.22 244.2C378.546 243.519 379.75 242.511 380.809 241.222C384.145 237.169 386.018 230.375 385.467 222.533C384.664 211.036 378.926 201.122 372.061 198.577C371.141 198.233 370.199 198.02 369.244 197.959C368.679 197.92 368.121 197.938 367.577 198.006C360.414 198.868 355.475 208.477 356.321 220.599L356.324 220.602Z" fill="#FF6162"/>
<path d="M357.883 220.751C358.64 231.567 364.666 240.697 371.342 241.14C372.724 241.233 374.028 240.941 375.219 240.331C376.317 239.767 377.319 238.929 378.196 237.86C380.964 234.495 382.517 228.862 382.062 222.356C381.398 212.814 376.633 204.593 370.937 202.478C370.173 202.194 369.392 202.016 368.599 201.963C368.13 201.931 367.668 201.945 367.217 202.002C361.276 202.716 357.176 210.692 357.879 220.748L357.883 220.751Z" fill="white"/>
<path d="M407.213 225.574L438.52 226.27L438.445 212.71L407.149 213.786C401.076 213.651 401.432 225.45 407.213 225.577V225.574Z" fill="#222222"/>
<path d="M434.194 219.572C434.102 215.827 435.969 212.743 438.364 212.684C440.759 212.625 442.776 215.614 442.868 219.359C442.96 223.104 441.093 226.188 438.698 226.247C436.303 226.306 434.286 223.317 434.194 219.572Z" fill="#222222"/>
<path d="M359.381 333.246C360.611 336.817 362.508 340.289 364.782 343.583C371.427 351.974 380.423 358.225 390.83 360.834C392.479 361.249 394.149 361.569 395.833 361.789C399.059 362.211 402.332 362.286 405.572 362.023L406.247 361.967L447.375 358.569C446.97 358.545 421.579 360.699 402.847 331.45C386.723 307.029 352.655 313.734 359.378 333.254L359.381 333.246Z" fill="#B81F20"/>
<path d="M328.02 367.105C327.732 366.853 327.558 366.58 327.515 366.282C324.03 341.786 353.084 315.611 375.696 318.188C395.455 323.388 407.738 340.87 410.389 361.621L328.016 367.109L328.02 367.105Z" fill="#FF3939"/>
<path d="M435.257 212.007C435.257 212.007 430.731 205.37 420.324 209.012C409.916 212.657 413.459 224.3 416.255 225.773C419.052 227.246 428.741 228.591 427.327 226.018C425.913 223.448 424.427 219.156 426.801 215.614C428.425 213.189 435.332 212.81 435.332 212.81L435.257 212.004V212.007Z" fill="#FFD5B8"/>
<path d="M566.578 258.704L570.736 258.229L568.231 236.335L585.797 235.238L588.249 256.674L592.406 256.198L589.727 232.788C589.599 231.684 588.629 230.875 587.517 230.939L565.765 232.299C565.193 232.334 564.66 232.604 564.29 233.044C563.921 233.484 563.75 234.056 563.814 234.624L566.571 258.704H566.578Z" fill="#222222"/>
<g style="mix-blend-mode:soft-light" opacity="0.8">
<path d="M615.8 344.785L537.009 351.164L540.126 365.018L616.504 353.645L615.8 344.785Z" fill="#222222"/>
</g>
<g style="mix-blend-mode:soft-light" opacity="0.8">
<path d="M413.31 361.381L340.371 366.336C340.179 371.458 340.62 376.208 341.902 380.453L414.738 370.298C414.525 367.067 414.113 364.036 413.31 361.377V361.381Z" fill="#222222"/>
</g>
<path d="M637.749 134.694C646.413 126.039 646.413 112.005 637.749 103.35C629.085 94.6942 615.037 94.6942 606.373 103.35C597.709 112.005 597.709 126.039 606.373 134.694C615.037 143.35 629.085 143.35 637.749 134.694Z" fill="#FF0000"/>
<path d="M620.863 129.442L610.523 113.306L612.261 111.47L620.828 119.567L646.726 96.5229L648.411 98.6634L620.863 129.442Z" fill="white"/>
<path style="mix-blend-mode:screen" opacity="0.5" d="M368.605 201.961L253.999 196.757L265.752 269.269L372.887 241.17L368.605 201.961Z" fill="url(#paint3_linear_1174_3261)"/>
<path d="M852.16 98.2656H918.304C921.174 98.2656 923.5 100.59 923.5 103.457V142.032C923.5 144.899 921.174 147.223 918.304 147.223H852.16C849.291 147.223 846.964 144.899 846.964 142.032V103.457C846.964 100.59 849.291 98.2656 852.16 98.2656Z" fill="#242C5E"/>
<path d="M908.9 133.789L908.163 136.05H905.784L907.708 137.448L906.975 139.71L908.9 138.312L910.824 139.71L910.091 137.448L912.016 136.05H909.636L908.9 133.789Z" fill="#FDF280"/>
<path d="M897.2 133.789L896.463 136.05H894.084L896.008 137.448L895.272 139.71L897.2 138.312L899.124 139.71L898.388 137.448L900.312 136.05H897.933L897.2 133.789Z" fill="#FDF280"/>
<path d="M885.497 133.789L884.761 136.05H882.381L884.309 137.448L883.573 139.71L885.497 138.312L887.425 139.71L886.689 137.448L888.613 136.05H886.234L885.497 133.789Z" fill="#FDF280"/>
<path d="M873.796 133.789L873.06 136.05H870.68L872.605 137.448L871.869 139.71L873.796 138.312L875.721 139.71L874.985 137.448L876.912 136.05H874.532L873.796 133.789Z" fill="#FDF280"/>
<path d="M862.093 133.789L861.36 136.05H858.977L860.905 137.448L860.169 139.71L862.093 138.312L864.021 139.71L863.284 137.448L865.209 136.05H862.829L862.093 133.789Z" fill="#FDF280"/>
<path d="M860.323 110.41H876.819C877.561 110.41 878.16 109.809 878.16 109.07C878.16 108.329 877.558 107.73 876.819 107.73H860.323C859.581 107.73 858.982 108.332 858.982 109.07C858.982 109.812 859.584 110.41 860.323 110.41Z" fill="#FF3939"/>
<path d="M860.324 116.269H881.714C882.456 116.269 883.055 115.668 883.055 114.93C883.055 114.188 882.453 113.59 881.714 113.59H860.324C859.581 113.59 858.983 114.191 858.983 114.93C858.983 115.671 859.584 116.269 860.324 116.269Z" fill="#FF3939"/>
<path d="M860.324 122.129H881.714C882.456 122.129 883.055 121.528 883.055 120.789C883.055 120.047 882.453 119.449 881.714 119.449H860.324C859.581 119.449 858.983 120.05 858.983 120.789C858.983 121.531 859.584 122.129 860.324 122.129Z" fill="#FF3939"/>
<path d="M860.324 127.988H881.714C882.456 127.988 883.055 127.387 883.055 126.648C883.055 125.907 882.453 125.309 881.714 125.309H860.324C859.581 125.309 858.983 125.91 858.983 126.648C858.983 127.39 859.584 127.988 860.324 127.988Z" fill="#FF3939"/>
<path d="M889.573 106.762H913.844V128.576H889.573V106.762Z" fill="#FF3939"/>
</g>
</g>
<defs>
<linearGradient id="paint0_linear_1174_3261" x1="490.977" y1="153.372" x2="784.806" y2="97.8545" gradientUnits="userSpaceOnUse">
<stop stop-color="white"/>
<stop offset="1"/>
</linearGradient>
<linearGradient id="paint1_linear_1174_3261" x1="450.227" y1="98.7335" x2="695.045" y2="52.4746" gradientUnits="userSpaceOnUse">
<stop stop-color="white"/>
<stop offset="1"/>
</linearGradient>
<linearGradient id="paint2_linear_1174_3261" x1="644.458" y1="301.755" x2="878.778" y2="257.479" gradientUnits="userSpaceOnUse">
<stop stop-color="white"/>
<stop offset="1"/>
</linearGradient>
<linearGradient id="paint3_linear_1174_3261" x1="367.81" y1="236.358" x2="251.37" y2="232.733" gradientUnits="userSpaceOnUse">
<stop stop-color="white"/>
<stop offset="1"/>
</linearGradient>
<clipPath id="clip0_1174_3261">
<rect width="1000" height="447" fill="white"/>
</clipPath>
<clipPath id="clip1_1174_3261">
<rect width="1000" height="447" fill="white" transform="matrix(-1 0 0 1 1000 0)"/>
</clipPath>
</defs>
</svg>
