<svg width="932" height="354" viewBox="0 0 932 354" fill="none" xmlns="http://www.w3.org/2000/svg">
<path d="M69.435 332.531L71.1453 332.901L65.1332 352.36H10.7129V350.403H13.3562C16.3277 350.403 18.4527 349.416 19.7311 347.442C20.4567 346.314 20.8195 343.706 20.8195 339.616V293.349C20.8195 288.872 20.3358 286.07 19.3683 284.942C18.0208 283.391 16.0167 282.615 13.3562 282.615H10.7129V280.659H42.5358V282.615C38.8041 282.58 36.1781 282.932 34.6578 283.673C33.1721 284.413 32.1528 285.347 31.5999 286.475C31.0471 287.603 30.7707 290.3 30.7707 294.565V339.616C30.7707 342.542 31.0471 344.552 31.5999 345.644C32.0145 346.385 32.6538 346.931 33.5176 347.284C34.3814 347.636 37.0765 347.812 41.6029 347.812H46.7339C52.1241 347.812 55.9076 347.407 58.0844 346.596C60.2613 345.785 62.248 344.358 64.0448 342.313C65.8415 340.233 67.6382 336.973 69.435 332.531Z" fill="black"/>
<path d="M144.579 279.02C153.701 279.02 161.597 282.562 168.265 289.648C174.968 296.698 178.32 305.511 178.32 316.086C178.32 326.979 174.951 336.021 168.213 343.212C161.476 350.403 153.321 353.999 143.75 353.999C134.076 353.999 125.938 350.491 119.339 343.476C112.774 336.461 109.491 327.384 109.491 316.245C109.491 304.859 113.292 295.57 120.894 288.379C127.493 282.139 135.389 279.02 144.579 279.02ZM143.595 282.88C137.306 282.88 132.261 285.259 128.461 290.018C123.727 295.94 121.36 304.612 121.36 316.033C121.36 327.737 123.813 336.743 128.72 343.053C132.486 347.848 137.462 350.245 143.647 350.245C150.246 350.245 155.688 347.618 159.973 342.366C164.292 337.114 166.451 328.83 166.451 317.514C166.451 305.246 164.084 296.099 159.351 290.071C155.55 285.277 150.298 282.88 143.595 282.88Z" fill="black"/>
<path d="M292.691 279.02L294.505 301.651H292.691C290.86 296.011 288.493 291.763 285.591 288.907C281.41 284.783 276.037 282.721 269.472 282.721C260.523 282.721 253.716 286.334 249.051 293.561C245.147 299.659 243.195 306.921 243.195 315.346C243.195 322.185 244.491 328.424 247.082 334.064C249.673 339.705 253.06 343.847 257.24 346.49C261.456 349.099 265.775 350.403 270.198 350.403C272.789 350.403 275.294 350.068 277.713 349.399C280.132 348.729 282.464 347.742 284.71 346.438V325.71C284.71 322.114 284.433 319.77 283.88 318.677C283.362 317.549 282.533 316.703 281.393 316.139C280.287 315.54 278.318 315.24 275.484 315.24V313.231H302.694V315.24H301.399C298.704 315.24 296.855 316.157 295.853 317.99C295.162 319.294 294.816 321.867 294.816 325.71V347.654C290.843 349.839 286.921 351.443 283.051 352.465C279.181 353.488 274.88 353.999 270.146 353.999C256.567 353.999 246.253 349.557 239.204 340.674C233.917 334.011 231.274 326.327 231.274 317.62C231.274 311.31 232.76 305.264 235.731 299.483C239.256 292.609 244.093 287.321 250.244 283.62C255.392 280.553 261.473 279.02 268.487 279.02C271.044 279.02 273.359 279.231 275.432 279.654C277.54 280.077 280.512 281.011 284.347 282.457C286.282 283.197 287.578 283.567 288.234 283.567C288.891 283.567 289.443 283.267 289.893 282.668C290.376 282.034 290.67 280.817 290.774 279.02H292.691Z" fill="black"/>
<path d="M382.081 350.403V352.36H351.969V350.403H354.456C357.359 350.403 359.467 349.54 360.78 347.812C361.609 346.684 362.023 343.97 362.023 339.669V293.349C362.023 289.718 361.799 287.321 361.35 286.158C361.004 285.277 360.296 284.519 359.225 283.884C357.704 283.038 356.115 282.615 354.456 282.615H351.969V280.659H382.081V282.615H379.542C376.674 282.615 374.583 283.479 373.27 285.206C372.406 286.334 371.975 289.049 371.975 293.349V339.669C371.975 343.3 372.199 345.697 372.648 346.861C372.994 347.742 373.72 348.5 374.825 349.134C376.311 349.98 377.883 350.403 379.542 350.403H382.081Z" fill="black"/>
<path d="M491.21 279.02V303.819H489.293C488.671 299.06 487.548 295.27 485.924 292.45C484.334 289.63 482.054 287.392 479.082 285.735C476.111 284.078 473.036 283.25 469.857 283.25C466.263 283.25 463.292 284.378 460.942 286.634C458.593 288.855 457.418 291.393 457.418 294.248C457.418 296.434 458.161 298.425 459.646 300.223C461.789 302.867 466.885 306.392 474.936 310.799C481.501 314.394 485.975 317.161 488.36 319.1C490.778 321.004 492.627 323.26 493.905 325.868C495.218 328.477 495.875 331.209 495.875 334.064C495.875 339.493 493.802 344.181 489.655 348.13C485.544 352.042 480.24 353.999 473.744 353.999C471.705 353.999 469.788 353.84 467.991 353.523C466.92 353.347 464.691 352.712 461.305 351.619C457.953 350.491 455.828 349.927 454.93 349.927C454.066 349.927 453.375 350.192 452.857 350.721C452.373 351.249 452.01 352.342 451.768 353.999H449.851V329.411H451.768C452.667 334.558 453.876 338.418 455.396 340.991C456.917 343.529 459.232 345.644 462.342 347.336C465.486 349.028 468.924 349.874 472.656 349.874C476.975 349.874 480.378 348.711 482.866 346.385C485.388 344.058 486.649 341.308 486.649 338.136C486.649 336.373 486.166 334.593 485.198 332.795C484.265 330.997 482.797 329.323 480.793 327.772C479.445 326.714 475.765 324.476 469.753 321.057C463.741 317.602 459.456 314.852 456.9 312.808C454.377 310.763 452.46 308.507 451.146 306.04C449.833 303.572 449.177 300.858 449.177 297.897C449.177 292.75 451.112 288.326 454.982 284.624C458.852 280.888 463.775 279.02 469.753 279.02C473.485 279.02 477.441 279.954 481.622 281.822C483.557 282.703 484.922 283.144 485.716 283.144C486.615 283.144 487.34 282.88 487.893 282.351C488.48 281.787 488.947 280.676 489.293 279.02H491.21Z" fill="black"/>
<path d="M608.121 280.659L608.899 297.474H606.929C606.549 294.512 606.031 292.397 605.374 291.128C604.303 289.084 602.869 287.586 601.073 286.634C599.31 285.647 596.978 285.153 594.076 285.153H584.176V339.934C584.176 344.34 584.643 347.09 585.576 348.182C586.889 349.663 588.91 350.403 591.64 350.403H594.076V352.36H564.274V350.403H566.762C569.733 350.403 571.841 349.487 573.085 347.654C573.845 346.526 574.225 343.952 574.225 339.934V285.153H565.777C562.495 285.153 560.162 285.4 558.78 285.894C556.983 286.563 555.446 287.85 554.167 289.754C552.889 291.657 552.129 294.23 551.887 297.474H549.917L550.747 280.659H608.121Z" fill="black"/>
<path d="M702.22 350.403V352.36H672.107V350.403H674.595C677.497 350.403 679.605 349.54 680.918 347.812C681.747 346.684 682.162 343.97 682.162 339.669V293.349C682.162 289.718 681.937 287.321 681.488 286.158C681.143 285.277 680.434 284.519 679.363 283.884C677.843 283.038 676.254 282.615 674.595 282.615H672.107V280.659H702.22V282.615H699.68C696.812 282.615 694.722 283.479 693.409 285.206C692.545 286.334 692.113 289.049 692.113 293.349V339.669C692.113 343.3 692.338 345.697 692.787 346.861C693.132 347.742 693.858 348.5 694.964 349.134C696.449 349.98 698.022 350.403 699.68 350.403H702.22Z" fill="black"/>
<path d="M826.586 279.02L828.193 303.396H826.586C824.444 296.099 821.386 290.846 817.413 287.638C813.439 284.431 808.671 282.827 803.108 282.827C798.443 282.827 794.228 284.043 790.462 286.475C786.695 288.872 783.724 292.715 781.547 298.002C779.405 303.29 778.334 309.864 778.334 317.725C778.334 324.212 779.353 329.834 781.392 334.593C783.43 339.352 786.488 343.001 790.565 345.539C794.677 348.077 799.359 349.346 804.611 349.346C809.172 349.346 813.197 348.359 816.687 346.385C820.177 344.375 824.012 340.41 828.193 334.487L829.8 335.545C826.275 341.925 822.164 346.596 817.464 349.557C812.765 352.518 807.185 353.999 800.724 353.999C789.08 353.999 780.061 349.592 773.669 340.78C768.901 334.223 766.517 326.503 766.517 317.62C766.517 310.464 768.089 303.889 771.233 297.897C774.377 291.904 778.697 287.268 784.19 283.99C789.719 280.676 795.748 279.02 802.279 279.02C807.358 279.02 812.368 280.289 817.309 282.827C818.76 283.602 819.797 283.99 820.419 283.99C821.352 283.99 822.164 283.655 822.855 282.985C823.753 282.034 824.392 280.712 824.772 279.02H826.586Z" fill="black"/>
<path d="M927.223 279.02V303.819H925.305C924.683 299.06 923.561 295.27 921.937 292.45C920.347 289.63 918.067 287.392 915.095 285.735C912.124 284.078 909.048 283.25 905.87 283.25C902.276 283.25 899.305 284.378 896.955 286.634C894.605 288.855 893.431 291.393 893.431 294.248C893.431 296.434 894.174 298.425 895.659 300.223C897.802 302.867 902.898 306.392 910.949 310.799C917.514 314.394 921.988 317.161 924.373 319.1C926.791 321.004 928.64 323.26 929.918 325.868C931.231 328.477 931.888 331.209 931.888 334.064C931.888 339.493 929.815 344.181 925.668 348.13C921.557 352.042 916.253 353.999 909.757 353.999C907.718 353.999 905.801 353.84 904.004 353.523C902.933 353.347 900.704 352.712 897.318 351.619C893.966 350.491 891.841 349.927 890.943 349.927C890.079 349.927 889.388 350.192 888.87 350.721C888.386 351.249 888.023 352.342 887.781 353.999H885.864V329.411H887.781C888.68 334.558 889.889 338.418 891.409 340.991C892.93 343.529 895.245 345.644 898.354 347.336C901.499 349.028 904.937 349.874 908.668 349.874C912.987 349.874 916.391 348.711 918.879 346.385C921.401 344.058 922.662 341.308 922.662 338.136C922.662 336.373 922.178 334.593 921.211 332.795C920.278 330.997 918.81 329.323 916.806 327.772C915.458 326.714 911.778 324.476 905.766 321.057C899.754 317.602 895.469 314.852 892.912 312.808C890.39 310.763 888.472 308.507 887.159 306.04C885.846 303.572 885.19 300.858 885.19 297.897C885.19 292.75 887.125 288.326 890.995 284.624C894.865 280.888 899.788 279.02 905.766 279.02C909.498 279.02 913.454 279.954 917.635 281.822C919.57 282.703 920.935 283.144 921.729 283.144C922.628 283.144 923.353 282.88 923.906 282.351C924.493 281.787 924.96 280.676 925.305 279.02H927.223Z" fill="black"/>
<path fill-rule="evenodd" clip-rule="evenodd" d="M202.721 0.525391V248.396H269.091V155.84L311.983 248.396H383.997L339.073 155.84C358.939 156.291 370.452 137.328 370.452 131.007V20.8427C370.452 14.296 355.778 0.525391 348.103 0.525391H202.721ZM304.759 48.6096H269.317V107.53H304.759V48.6096Z" fill="#FF0000"/>
<path d="M102.264 97.1454L164.57 83.8262V26.7121C164.57 17.9078 152.38 0.525381 135.9 0.525391H25.7352C17.3826 0.525391 -9.23212e-10 18.5852 0 25.3576V228.982C0 235.98 10.8359 248.396 17.8341 248.396H141.318C154.863 248.396 164.796 238.463 164.796 229.433V154.485L102.264 168.482V203.924H62.3063V48.8354H102.264V97.1454Z" fill="black"/>
<path d="M413.795 0.525391V248.396H550.373V201.441H476.779V144.778H528.023L540.665 97.8226H476.779V48.1581L550.373 48.6096V0.525391H413.795Z" fill="black"/>
<path d="M592.813 0.525391V248.396H730.068V201.441H656.474V144.778H706.59L720.586 97.8226H656.474V48.6096H730.068V0.525391H592.813Z" fill="black"/>
<path fill-rule="evenodd" clip-rule="evenodd" d="M766.864 0.525391V248.396H905.473C916.084 248.396 931.886 231.014 931.886 224.015V24.2289C931.886 14.5217 918.793 0.525391 902.313 0.525391H766.864ZM867.548 48.6096H830.074V201.441H867.548V48.6096Z" fill="black"/>
</svg>
