<svg width="1301" height="1681" viewBox="0 0 1301 1681" fill="none" xmlns="http://www.w3.org/2000/svg">
<path d="M221.554 749.329C391.381 846.803 447.374 868.486 508.165 877.143C509.277 877.302 509.744 875.793 508.746 875.279C459.939 850.116 432.363 829.904 386.777 788.454C386.195 787.924 386.448 786.94 387.206 786.731C797.779 673.962 1021.01 1015.82 992.039 1278.03C992.005 1278.34 991.822 1278.61 991.553 1278.78C948.014 1304.76 924.125 1318.9 881.991 1341.98C881.337 1342.33 881.297 1343.28 881.911 1343.7C934.592 1380.05 950.964 1403.96 970.083 1446.89C970.469 1447.75 969.513 1448.61 968.675 1448.17C799.424 1359.04 708.707 1337.82 559.596 1324.05C558.37 1323.94 558.019 1325.78 559.208 1326.1C727.844 1371.64 895.317 1481.42 941.704 1535.53C942.414 1536.36 941.412 1537.43 940.453 1536.91C719.632 1417.24 454.929 1415.85 268.769 1480.69C267.649 1481.08 268.081 1482.7 269.26 1482.56C367.482 1471.4 425.24 1468.19 514.943 1484.77C516.111 1484.98 515.93 1486.69 514.744 1486.74C315.852 1495.95 202.019 1550.64 3.46222 1678.77C2.5838 1679.33 1.51416 1678.33 2.02966 1677.42C124.989 1460.45 200.164 1341.54 342.609 1136.36C342.822 1136.05 343.201 1135.89 343.572 1135.93C367.715 1139.13 382.87 1139.92 411.33 1139.65C412.053 1139.64 412.549 1140.39 412.263 1141.06C390.834 1190.86 378.82 1218.68 357.663 1260.59C357.122 1261.66 358.58 1262.59 359.33 1261.66C382.798 1232.32 397.09 1211.53 421.175 1173.03C421.305 1172.82 421.514 1172.66 421.75 1172.59C449.855 1164.39 465.8 1159.74 498.393 1150.16C498.68 1150.08 498.923 1149.86 499.04 1149.58L499.721 1147.98C518.005 1104.93 528.544 1080.12 546.871 1012.7C546.972 1012.33 547.282 1012.04 547.657 1011.97C608.962 1000.14 645.945 995.981 710.013 992.651C711.189 992.589 711.333 990.923 710.176 990.702C562.38 962.545 396.8 975.596 232.974 1052.95C232.294 1053.27 232.196 1054.2 232.794 1054.65C243.812 1063.05 248.796 1067.91 255.692 1075.93C255.909 1076.18 255.985 1076.53 255.897 1076.85C225.224 1188.05 201.039 1239.63 153.104 1319.7C152.578 1320.57 151.217 1320.21 151.236 1319.19L154.944 1115.25C154.946 1115.13 154.969 1115.01 155.012 1114.9C198.248 1003.43 213.715 925.473 220.025 750.17C220.052 749.417 220.901 748.955 221.554 749.329Z" fill="black"/>
<path d="M23.9769 150.23C144.924 44.336 338.725 -3.49777 544.745 0.198557C545.004 0.203205 545.255 0.311095 545.438 0.494591C614.647 69.903 642.538 135.659 686.706 263.519C687.077 264.594 688.675 264.338 688.652 263.201C686.842 172.253 674.239 117.49 654.122 19.7159C653.974 18.9985 654.63 18.3558 655.343 18.5271C691.032 27.1143 711.626 32.4204 748.85 48.2304C749.088 48.3313 749.284 48.5271 749.386 48.7647C764.302 83.7885 769.153 105.793 778.768 140.747C779.068 141.84 780.671 141.675 780.735 140.543C782.414 110.886 784.418 91.6416 782.397 61.2455C782.35 60.5304 783.032 59.9823 783.709 60.2185C865.487 88.7608 968.049 154.046 988.119 179.537C988.218 179.664 988.275 179.801 988.304 179.959C994.287 212.794 994.086 238.664 992.254 284.912C992.21 286.018 993.726 286.365 994.162 285.347C1006.34 256.963 1012.26 238.663 1016.37 205.268C1016.47 204.463 1017.44 204.089 1018.04 204.633L1074.87 255.963C1075.07 256.144 1075.19 256.403 1075.2 256.673C1077.46 317.824 1069.5 353.765 1053.18 417.186C1052.9 418.294 1054.39 418.921 1055 417.948C1080 377.507 1093.16 351.221 1112.4 303.021C1112.67 302.354 1113.54 302.161 1114.04 302.671C1182.37 371.461 1229.51 463.043 1273.47 597.907C1273.55 598.134 1273.54 598.387 1273.44 598.607C1262.33 625.285 1253.01 641.02 1234.79 667.061C1234.17 667.95 1235.2 669.056 1236.12 668.482C1254.03 657.298 1264.71 648.483 1280.81 629.975C1281.34 629.361 1282.35 629.589 1282.54 630.382C1317.59 778.479 1297.82 973.938 1246.25 1185.59C1246 1186.62 1244.53 1186.61 1244.29 1185.58C1237.64 1157.29 1231.66 1141.16 1217.9 1119.53C1217.31 1118.59 1215.88 1119.21 1216.1 1120.29C1243.15 1253.5 1203.73 1364.05 1257.88 1607.51C1258.08 1608.41 1257.09 1609.13 1256.35 1608.57C1195.86 1562.93 1152.13 1458.7 1173.54 1291.49C1173.69 1290.36 1172.13 1289.86 1171.65 1290.89C1156.67 1322.71 1150.25 1341.79 1139.13 1374.88L1139.04 1375.13C1138.7 1376.16 1137.2 1375.99 1137.11 1374.91C1123.8 1226.53 1139.51 1080.93 1223.42 909.352C1223.89 908.393 1222.74 907.441 1221.91 908.111C1192.5 931.78 1177.46 948.281 1153.64 976.703C1153.03 977.44 1151.82 976.943 1151.87 975.982C1157.2 875.287 1152.61 820.115 1116.9 730.906C1116.81 730.67 1116.81 730.397 1116.9 730.16C1129.2 698.7 1135.44 680.469 1143.29 649.846C1143.54 648.872 1142.34 648.191 1141.61 648.888C1096.84 691.934 1066.64 717.454 1011.87 753.541C1011.37 753.866 1010.69 753.694 1010.42 753.172C1002.51 738.283 996.927 732.138 987.119 722.747C986.711 722.356 986.71 721.697 987.113 721.3C1035.24 673.919 1061.1 632.698 1093.04 562.246C1093.52 561.19 1092.11 560.305 1091.36 561.189C1047.85 612.398 1015.57 643.046 952.98 686.639C952.615 686.893 952.112 686.875 951.766 686.596C903.773 647.923 875.657 631.355 825.654 609.961C825.18 609.758 824.933 609.213 825.089 608.721C859.103 501.95 871.103 442.245 857.848 335.216C857.706 334.064 856.041 334.037 855.866 335.184C841.199 431.365 820.723 485.854 768.578 584.174C768.327 584.648 767.736 584.849 767.252 584.618C754.175 578.368 745.815 575.199 731.112 570.184C730.66 570.03 730.376 569.568 730.439 569.095C738.187 510.713 742.028 477.009 737.459 422.692C737.365 421.571 735.782 421.447 735.502 422.537C722.881 471.777 711.837 502.343 692.827 554.947C692.662 555.404 692.18 555.683 691.701 555.599C646.954 547.755 621.206 544.127 575.179 539.755C574.743 539.713 574.375 539.384 574.284 538.956C563.643 488.745 554.094 461.68 529.556 420.76C529.004 419.84 527.598 420.323 527.72 421.389C532.656 464.4 535.142 490.7 540.303 536.706C540.368 537.287 539.915 537.811 539.331 537.83C496.577 539.192 472.823 541.158 432.724 547.102C432.197 547.18 431.69 546.823 431.585 546.301C405.862 418.086 372.952 336.006 308.635 222.204C308.036 221.145 306.413 221.887 306.803 223.038C329.782 290.868 337.075 332.405 337.289 406.818C337.292 407.816 335.983 408.215 335.44 407.378C249.171 274.572 136.35 189.724 24.3171 151.923C23.5868 151.677 23.3971 150.738 23.9769 150.23Z" fill="#FF0000"/>
<path d="M387.556 733.202C490.797 717.961 553.986 713.728 669.103 732.466C670.201 732.645 670.753 731.177 669.782 730.632C612.875 698.654 572.426 692.232 507.497 684.627C506.283 684.485 506.366 682.744 507.587 682.687C742.478 671.653 921.373 744.792 1052.93 981.716C1053.52 982.779 1055.14 982.066 1054.75 980.914C941.527 645.492 637.587 534.529 368.477 650.761C367.96 650.984 367.729 651.603 367.967 652.114C382.186 682.692 385.62 700.648 386.396 732.227C386.411 732.828 386.961 733.29 387.556 733.202Z" fill="black"/>
</svg>
